# xmcd
#
# Track frame offsets:
# 150
# 10662
# 28057
# 39695
# 56572
# 66010
# 82192
# 100785
# 115200
# 125720
# 140335
# 153057
# 162307
# 173365
# 189072
#
# Disc length: 2700 seconds
#
#
# Revision: 2
# Processed by: cddbd v1.5.2PL0 Copyright (c) Steve Scherf et al.
# Submitted via: FreeRIP 2.951 
#
DISCID=b80a8a0f
DTITLE=Willie Nelson - Moonlight Becomes You
DYEAR=1993
DGENRE=
TTITLE0=December Day
TTITLE1=Moonlight Becomes You
TTITLE2=Afraid
TTITLE3=The Heart of a Clown
TTITLE4=Please Don't Talk About Me When I'm Gone
TTITLE5=Everywhere You Go
TTITLE6=Have I Stayed Away Too Long
TTITLE7=Sentimental Journey
TTITLE8=The World is Waiting for The Sunrise
TTITLE9=You'll Never Know
TTITLE10=I'll Keep On Loving You
TTITLE11=You Just Can't Play a Sad Song On a Banjo
TTITLE12=You Always Hurt the One You Love
TTITLE13=Someday
TTITLE14=In God's Eyes
EXTD=
EXTT0=
EXTT1=
EXTT2=
EXTT3=
EXTT4=
EXTT5=
EXTT6=
EXTT7=
EXTT8=
EXTT9=
EXTT10=
EXTT11=
EXTT12=
EXTT13=
EXTT14=
PLAYORDER=
